<svg xmlns="http://www.w3.org/2000/svg" width="60" height="60" fill="none" viewBox="0 0 60 60">
  <path fill="url(#a)" fill-rule="evenodd" d="M44.996 20.118c0 3.882-.655 5.074-1.496 6.882C49.894 28.346 54 33.088 54 39.882 54 47.68 47.68 54 39.882 54H20.118C12.32 54 6 47.68 6 39.882 6 33.088 10.106 28.347 16.5 27c-.841-1.808-1.488-3-1.488-6.882C15.012 12.32 22.202 6 29.999 6s14.997 6.32 14.997 14.118Z" clip-rule="evenodd"/>
  <path fill="#fff" d="m31.671 21.431 5.064 2.77c1.02.558 1.02 2.04 0 2.598l-5.064 2.77a3.503 3.503 0 0 1-3.373-.004l-5.036-2.768c-1.016-.558-1.016-2.036 0-2.594l5.036-2.768a3.503 3.503 0 0 1 3.373-.004Z"/>
  <defs>
    <linearGradient id="a" x1="46.975" x2=".386" y1="47.168" y2=".287" gradientUnits="userSpaceOnUse">
      <stop offset=".214" stop-color="#4B47FF"/>
      <stop offset="1" stop-color="#39DBB0"/>
    </linearGradient>
  </defs>
</svg>